<?xml version="1.0" encoding="utf-8"?>
<!-- Generator: Adobe Illustrator 24.1.0, SVG Export Plug-In . SVG Version: 6.00 Build 0)  -->
<svg version="1.1" xmlns="http://www.w3.org/2000/svg" xmlns:xlink="http://www.w3.org/1999/xlink" x="0px" y="0px"
	 viewBox="0 0 512 512" style="enable-background:new 0 0 512 512;" xml:space="preserve">
<metadata>
<?xpacket begin="﻿" id="W5M0MpCehiHzreSzNTczkc9d"?>
<x:xmpmeta xmlns:x="adobe:ns:meta/">
  <rdf:RDF xmlns:rdf="http://www.w3.org/1999/02/22-rdf-syntax-ns#">
    <rdf:Description rdf:about=""
        xmlns:dc="http://purl.org/dc/elements/1.1/">
      <dc:creator>
        <rdf:Seq><rdf:li>Freeicon</rdf:li></rdf:Seq>
      </dc:creator>
      <dc:rights>
        <rdf:Alt><rdf:li xml:lang="x-default">Free for personal and commercial use - freeicon.com</rdf:li></rdf:Alt>
      </dc:rights>
    </rdf:Description>
    <rdf:Description rdf:about=""
        xmlns:Iptc4xmpCore="http://iptc.org/std/Iptc4xmpCore/1.0/xmlns/">
      <Iptc4xmpCore:CreditLine>freeicon.com</Iptc4xmpCore:CreditLine>
    </rdf:Description>
    <rdf:Description rdf:about=""
        xmlns:photoshop="http://ns.adobe.com/photoshop/1.0/">
      <photoshop:Credit>freeicon.com</photoshop:Credit>
      <photoshop:Source>freeicon.com</photoshop:Source>
    </rdf:Description>
  </rdf:RDF>
</x:xmpmeta>
<?xpacket end="w"?>
</metadata>

<g id="_x31_5_x2C__Diary_x2C__write_x2C__notebook_x2C__pen_x2C__content">
	<g>
		<g>
			<polygon style="fill:#89CCFF;" points="476,376 446,436 416,376 			"/>
			<rect x="416" y="186" style="fill:#FFFFFF;" width="60" height="190"/>
			<path style="fill:#FFFFFF;" d="M476,106v40h-60v-40c0-16.56,13.43-30,30-30c8.28,0,15.78,3.36,21.21,8.79
				C472.64,90.22,476,97.72,476,106z"/>
			<rect x="416" y="146" style="fill:#89CCFF;" width="60" height="40"/>
			<rect x="306" y="126" style="fill:#FFFFFF;" width="70" height="60"/>
			<polygon style="fill:#89CCFF;" points="306,186 306,486 256,486 256,26 306,26 306,126 			"/>
			<path style="fill:#FFFFFF;" d="M376,186v266.5c0,18.51-15,33.5-33.5,33.5H306V186H376z"/>
			<path style="fill:#FFFFFF;" d="M376,59.5V126h-70V26h36.5C361,26,376,41,376,59.5z"/>
			<path style="fill:#FFFFFF;" d="M86,446v-50v-60v-50v-60v-50v-60V66v-6.5C86,41,101,26,119.5,26H256v460H119.5
				C101,486,86,471.01,86,452.5V446z"/>
			<path style="fill:#2169AC;" d="M376,136c-5.522,0-10-4.478-10-10V59.5c0-12.958-10.542-23.5-23.5-23.5H306
				c-5.522,0-10-4.478-10-10s4.478-10,10-10h36.5c23.986,0,43.5,19.514,43.5,43.5V126C386,131.522,381.522,136,376,136z"/>
			<path style="fill:#2169AC;" d="M256,496H119.5C95.514,496,76,476.486,76,452.5v-393C76,35.514,95.514,16,119.5,16H256
				c5.523,0,10,4.478,10,10s-4.477,10-10,10H119.5C106.542,36,96,46.542,96,59.5v393c0,12.958,10.542,23.5,23.5,23.5H256
				c5.523,0,10,4.478,10,10S261.523,496,256,496z"/>
			<path style="fill:#2169AC;" d="M342.5,496H306c-5.522,0-10-4.478-10-10s4.478-10,10-10h36.5c12.958,0,23.5-10.542,23.5-23.5V186
				c0-5.522,4.478-10,10-10s10,4.478,10,10v266.5C386,476.486,366.486,496,342.5,496z"/>
			<path style="fill:#2169AC;" d="M116,126H61c-9.353,0-18.143-3.64-24.751-10.25C29.64,109.143,26,100.353,26,91
				c0-19.299,15.701-35,35-35h25c5.523,0,10,4.478,10,10s-4.477,10-10,10H61c-8.271,0-15,6.729-15,15
				c0,4.01,1.559,7.777,4.391,10.608C53.223,104.44,56.99,106,61,106h55c5.523,0,10,4.478,10,10S121.523,126,116,126z"/>
			<path style="fill:#2169AC;" d="M116,236H61c-9.353,0-18.143-3.64-24.751-10.25C29.64,219.143,26,210.353,26,201
				c0-19.299,15.701-35,35-35h25c5.523,0,10,4.478,10,10s-4.477,10-10,10H61c-8.271,0-15,6.729-15,15
				c0,4.01,1.559,7.777,4.391,10.608C53.223,214.44,56.99,216,61,216h55c5.523,0,10,4.478,10,10S121.523,236,116,236z"/>
			<path style="fill:#2169AC;" d="M116,346H61c-9.353,0-18.143-3.64-24.751-10.25C29.64,329.143,26,320.353,26,311
				c0-19.299,15.701-35,35-35h25c5.523,0,10,4.478,10,10s-4.477,10-10,10H61c-8.271,0-15,6.729-15,15
				c0,4.01,1.559,7.777,4.391,10.608C53.223,324.44,56.99,326,61,326h55c5.523,0,10,4.478,10,10S121.523,346,116,346z"/>
			<path style="fill:#2169AC;" d="M116,456H61c-9.353,0-18.143-3.64-24.751-10.25C29.64,439.143,26,430.353,26,421
				c0-19.299,15.701-35,35-35h25c5.523,0,10,4.478,10,10s-4.477,10-10,10H61c-8.271,0-15,6.729-15,15
				c0,4.01,1.559,7.777,4.391,10.608C53.223,434.44,56.99,436,61,436h55c5.523,0,10,4.478,10,10S121.523,456,116,456z"/>
			<path style="fill:#2169AC;" d="M306,496h-50c-5.523,0-10-4.478-10-10V26c0-5.522,4.477-10,10-10h50c5.522,0,10,4.478,10,10v100
				c0,5.522-4.478,10-10,10s-10-4.478-10-10V36h-30v440h30V186c0-5.522,4.478-10,10-10s10,4.478,10,10v300
				C316,491.522,311.522,496,306,496z"/>
			<path style="fill:#2169AC;" d="M446,446c-3.788,0-7.25-2.14-8.944-5.528l-30-60C406.361,379.084,406,377.553,406,376V106
				c0-22.056,17.944-40,40-40c10.681,0,20.724,4.162,28.281,11.719C481.838,85.276,486,95.319,486,106v270
				c0,1.553-0.361,3.084-1.056,4.472l-30,60C453.25,443.86,449.788,446,446,446z M426,373.64l20,40l20-40V106
				c0-5.338-2.081-10.359-5.861-14.139C456.359,88.081,451.338,86,446,86c-11.028,0-20,8.972-20,20V373.64z"/>
			<path style="fill:#2169AC;" d="M476,156h-60c-5.522,0-10-4.478-10-10s4.478-10,10-10h60c5.522,0,10,4.478,10,10
				S481.522,156,476,156z"/>
			<path style="fill:#2169AC;" d="M476,196h-60c-5.522,0-10-4.478-10-10s4.478-10,10-10h60c5.522,0,10,4.478,10,10
				S481.522,196,476,196z"/>
			<path style="fill:#2169AC;" d="M476,386h-60c-5.522,0-10-4.478-10-10s4.478-10,10-10h60c5.522,0,10,4.478,10,10
				S481.522,386,476,386z"/>
			<path style="fill:#2169AC;" d="M376,196h-70c-5.522,0-10-4.478-10-10v-60c0-5.522,4.478-10,10-10h70c5.522,0,10,4.478,10,10v60
				C386,191.522,381.522,196,376,196z M316,176h50v-40h-50V176z"/>
		</g>
	</g>
</g>
<g id="Layer_1">
</g>
</svg>
